<?xml version="1.0" encoding="utf-8"?>
<svg viewBox="0 0 128 128" xmlns="http://www.w3.org/2000/svg">
  <title>map</title>
  <path class="cls-1" d="M 68.292 76.188 C 67.725 76.614 66.95 76.639 66.355 76.251 C 59.956 72.221 54.273 67.151 49.542 61.251 C 43.751 54.213 39.858 45.811 38.229 36.844 C 36.886 28.521 38.167 20.521 42.334 14.01 C 44.016 11.366 46.129 9.021 48.584 7.073 C 53.957 2.586 60.711 0.088 67.709 0 C 74.486 0.109 80.976 2.755 85.897 7.417 C 87.787 9.149 89.422 11.141 90.751 13.334 C 95.199 20.625 96.157 30 94.199 39.5 C 90.884 54.731 81.537 67.968 68.292 76.188 Z M 48.5 76.959 L 48.5 105.938 L 79.907 119.481 L 79.907 82.157 C 82.273 80.351 84.517 78.393 86.626 76.292 L 86.626 119.188 L 112.667 106.074 L 112.667 47.74 L 102.657 51.594 C 103.664 48.94 104.492 46.222 105.136 43.459 L 114.824 39.719 C 116.544 39.091 118.449 39.958 119.106 41.667 C 119.256 42.052 119.334 42.462 119.334 42.875 L 119.334 108.188 C 119.341 109.556 118.517 110.792 117.251 111.313 L 84.751 127.637 C 83.795 128.121 82.665 128.121 81.709 127.637 L 45.25 111.834 L 13.875 127.637 C 12.222 128.474 10.201 127.812 9.365 126.158 C 9.129 125.688 9.004 125.171 9 124.647 L 9 55.459 C 9 53.965 9.984 52.65 11.416 52.23 L 28.479 45.647 C 29.114 47.793 29.865 49.904 30.73 51.969 L 15.729 57.751 L 15.729 119.21 L 41.771 106.095 L 41.771 69.887 C 43.868 72.379 46.115 74.741 48.5 76.959 Z" style="fill-rule: evenodd;"/>
  <text style="fill: rgb(255, 255, 255); font-family: FreeMono; font-size: 34.5px; text-anchor: middle; white-space: pre;" x="68.615" y="42.69">XP</text>
</svg>